<svg width="24" height="24" xmlns="http://www.w3.org/2000/svg">
 <!-- Created with Method Draw - http://github.com/duopixel/Method-Draw/ -->
 <g>
  <title>background</title>
  <rect fill="none" id="canvas_background" height="26" width="26" y="-1" x="-1"/>
 </g>
 <g>
  <title>Layer 1</title>
  <path d="m4.848102,17.886076c0,-0.253164 0,-0.379747 0,-0.759495c0,-0.886074 0.062366,-1.648649 0,-2.27848c-0.063601,-0.642304 -0.126583,-1.139241 -0.126583,-1.772152c0,-0.50633 0,-1.139241 0,-1.772152c0,-0.632912 0.195812,-1.372739 0.379747,-2.151899c0.205645,-0.871127 0.189046,-1.503614 0.253165,-1.898734c0.020276,-0.124948 0,-0.253165 0.126582,-0.253165c0.506329,0 1.514681,-0.063226 2.911393,-0.126582c1.011618,-0.045888 1.898734,-0.126582 2.531645,-0.126582c0.50633,0 1.012658,0 1.772152,0c0.632912,0 1.139241,0 1.518988,0c0.379746,0 0.759494,0.126582 1.13924,0.126582c0.253164,0 0.379746,0 0.759494,0c0.253164,0 0.506329,0 0.632912,0c0.126581,0 0.253164,0 0.379745,0c0.126583,0 0.104273,0.188134 0.379747,0.253165c0.123198,0.029083 0.253164,0 0.379747,0c0.126581,0 0.126581,0.126582 0.126581,0.379746c0,0.379747 0,1.012659 0,1.772152c0,0.759493 0,1.518987 0,2.025316c0,0.886076 -0.144192,1.515718 -0.253164,2.151898c-0.151119,0.882222 -0.189657,1.384553 -0.253164,2.151898c-0.041763,0.504603 0,0.886077 0,1.012658c0,0.126583 0.126583,0.253164 0.126583,0.379747c0,0.126581 0.126581,0.253164 0.126581,0.379747l0.126583,0" id="svg_12" fill-opacity="null" stroke-opacity="null" stroke-width="1.5" stroke="#005fbf" fill="none"/>
 </g>
</svg>