<svg width="24" height="24" xmlns="http://www.w3.org/2000/svg">
 <!-- Created with Method Draw - http://github.com/duopixel/Method-Draw/ -->
 <g>
  <title>background</title>
  <rect fill="none" id="canvas_background" height="26" width="26" y="-1" x="-1"/>
 </g>
 <g>
  <title>Layer 1</title>
  <path stroke="#005fbf" d="m4.464135,16.386041c0,-0.123422 0,-0.493693 0,-1.110811c0,-0.740541 0,-1.481081 0,-1.974775c0,-0.617118 0,-1.110811 0,-1.481082c0,-0.493693 -0.061422,-0.848976 -0.124472,-1.234234c-0.079753,-0.487318 -0.124473,-0.863964 -0.124473,-1.357658c0,-0.246848 0,-0.617118 0,-0.987388c0,-0.246848 0,-0.617118 0,-0.863965c0,-0.123423 0.133948,-0.170655 0.248945,-0.123423c0.487894,0.200389 0.949142,0.915014 1.493671,1.357658c0.34707,0.282131 0.73474,0.64479 0.99578,0.740541c0.481335,0.176556 1.148802,0.287821 1.618144,0.493693c0.820855,0.360061 1.857172,1.008118 2.364978,1.234235c0.611479,0.272281 0.971924,0.53633 1.618144,0.863964c0.844023,0.427921 1.762681,0.956086 2.364979,1.357658c0.516466,0.344345 0.746836,0.740541 0.99578,0.987388c0.248945,0.246847 0.459621,0.640075 0.622363,0.863964c0.205854,0.283199 0.461228,0.412998 0.746835,0.617118c0.225791,0.16137 0.373418,0.246848 0.49789,0.37027c0.248947,0.246847 0.373418,0.370269 0.497892,0.493693c0.124473,0.123424 0.248945,0.246847 0.373416,0.246847c0.124473,0 0.248947,0 0.373418,0.123424l0.124473,0l0,0.123424" id="svg_18" fill-opacity="null" stroke-opacity="null" stroke-width="1.5" fill="none"/>
  <polyline stroke-linecap="round" id="svg_19" points="19.025316229540465,16.873417564636178 19.025316229540465,16.873417564636178 " fill-opacity="null" stroke-opacity="null" stroke-width="1.5" stroke="#005fbf" fill="none"/>
  <polyline stroke-linecap="round" id="svg_20" points="27.25316406593921,13.07594933245214 27.379746340345342,12.949367058046008 " fill-opacity="null" stroke-opacity="null" stroke-width="1.5" stroke="#005fbf" fill="none"/>
 </g>
</svg>