<svg width="24" height="24" xmlns="http://www.w3.org/2000/svg">
 <!-- Created with Method Draw - http://github.com/duopixel/Method-Draw/ -->
 <defs>
  <filter height="200%" width="200%" y="-50%" x="-50%" id="svg_3_blur">
   <feGaussianBlur stdDeviation="0" in="SourceGraphic"/>
  </filter>
 </defs>
 <g>
  <title>background</title>
  <rect fill="none" id="canvas_background" height="26" width="26" y="-1" x="-1"/>
  <g display="none" overflow="visible" y="0" x="0" height="100%" width="100%" id="canvasGrid">
   <rect fill="url(#gridpattern)" stroke-width="0" y="0" x="0" height="100%" width="100%"/>
  </g>
 </g>
 <g>
  <title>Layer 1</title>
  <path filter="url(#svg_3_blur)" d="m2.390506,14.249993c0,0 0,-0.166666 0,-0.333332c0,-0.166666 0,-0.333332 0,-0.499998c0,-0.166667 0,-0.333333 0,-0.499999c0,-0.166666 0.166666,-0.166666 0.166666,-0.333332c0,-0.166666 0.166666,-0.166666 0.166666,-0.333332c0,-0.166667 0.048815,-0.382149 0.166666,-0.499999c0.117851,-0.11785 0.215482,-0.048815 0.333332,-0.166666c0.117851,-0.11785 0.102886,-0.179353 0.166666,-0.333332c0.090199,-0.21776 0.382148,-0.215483 0.499998,-0.333333c0.117851,-0.11785 0.102886,-0.179353 0.166666,-0.333332c0.090199,-0.21776 0.282238,-0.243134 0.499999,-0.333332c0.153979,-0.06378 0.179353,-0.102885 0.333332,-0.166666c0.217761,-0.090199 0.215482,-0.215483 0.333333,-0.333333c0.117851,-0.11785 0.215482,-0.048815 0.333333,-0.166666c0.117851,-0.11785 0.048815,-0.215482 0.166666,-0.333332c0.117851,-0.11785 0.333332,0 0.499999,0c0.166666,0 0.333332,0 0.499999,0c0.166666,0 0.333332,0 0.499999,0c0.166666,0 0.333332,0 0.499998,0c0.166667,0 0.333333,0 0.499999,0c0.166666,0 0.382148,-0.11785 0.499998,0c0.11785,0.11785 0.166666,0.166666 0.333332,0.166666c0.166667,0 0.333333,0.166666 0.499999,0.166666c0.166666,0 0.215482,0.048816 0.333332,0.166666c0.11785,0.11785 0.243134,0.115573 0.333332,0.333333c0.06378,0.153979 0.102886,0.179353 0.166667,0.333332c0.090199,0.21776 0.269551,0.179353 0.333332,0.333332c0.090199,0.21776 0.243134,0.282239 0.333332,0.499999c0.06378,0.153979 0.102885,0.179353 0.166666,0.333332c0.090199,0.21776 0.269552,0.179353 0.333333,0.333332c0.090199,0.21776 0.166666,0.333333 0.333332,0.499999c0.166666,0.166666 0.269551,0.179353 0.333332,0.333332c0.090199,0.21776 0.215483,0.215482 0.333333,0.333332c0.11785,0.11785 0.166666,0.166666 0.333332,0.166666c0.166666,0 0.264297,-0.069035 0.499998,0.166667c0.11785,0.11785 0.333332,0.333332 0.499999,0.499998c0.166666,0.166666 0.282238,0.243133 0.499998,0.333332c0.153979,0.063781 0.166666,0.166667 0.333332,0.166667c0.166667,0 0.333333,0.166666 0.499999,0.166666c0.166666,0 0.333332,0 0.499998,0c0.333332,0 0.448904,0.076468 0.666664,0.166666c0.15398,0.063782 0.333334,0 0.5,0c0.166666,0 0.333332,0 0.499998,0c0.166666,0 0.382147,0.117851 0.499998,0c0.117851,-0.117851 0.048815,-0.215482 0.166666,-0.333332c0.235701,-0.235702 0.436218,-0.179354 0.499998,-0.333333c0.090199,-0.21776 0.28224,-0.243133 0.5,-0.333332c0.15398,-0.063781 0.192039,-0.039105 0.499998,-0.166666c0.21776,-0.090199 0.333332,-0.333333 0.499998,-0.333333c0.166666,0 0.333332,-0.166666 0.499998,-0.333332c0.166666,-0.166666 0.382149,-0.21548 0.5,-0.333332c0.117851,-0.11785 -0.117851,-0.382148 0,-0.499999c0.117851,-0.11785 0.333332,-0.166666 0.333332,-0.333332c0,-0.166666 0.048815,-0.215482 0.166666,-0.333332c0.117851,-0.11785 0,-0.499999 0,-0.666665c0,-0.166666 0,-0.333332 0,-0.499998c0,-0.166666 0,-0.333333 0,-0.499999l0,-0.166666l0,-0.166666l0,-0.166666" id="svg_3" stroke-width="1.5" stroke="#005fbf" fill="none"/>
 </g>
</svg>