<svg width="24" height="24" xmlns="http://www.w3.org/2000/svg">
 <!-- Created with Method Draw - http://github.com/duopixel/Method-Draw/ -->
 <g>
  <title>background</title>
  <rect fill="none" id="canvas_background" height="26" width="26" y="-1" x="-1"/>
 </g>
 <g>
  <title>Layer 1</title>
  <path d="m2.696203,16.93671c0.253165,-0.126581 0.470757,-0.292433 0.886076,-0.632912c0.352952,-0.289352 0.786288,-0.596724 1.13924,-0.886075c0.415318,-0.34048 0.725268,-0.915045 1.265823,-1.518988c0.477554,-0.533555 0.976471,-0.91287 1.265823,-1.265822c0.226986,-0.276879 0.738193,-0.903414 1.772151,-2.151899c0.744373,-0.898816 1.475714,-1.565446 2.151899,-2.151898c0.478135,-0.414684 0.855833,-0.812139 1.265822,-1.012658c0.359585,-0.175867 0.759494,-0.379747 1.13924,-0.506329l0.126582,-0.126582" id="svg_6" fill-opacity="null" stroke-opacity="null" stroke-width="1.5" stroke="#005fbf" fill="none"/>
  <path d="m12.56962,7.189876c0.126582,0 0.403293,0.087664 0.632912,0.253164c0.435672,0.314014 0.96284,0.954267 1.13924,1.265823c0.257145,0.454167 0.27725,0.871078 0.50633,1.265822c0.142069,0.244809 0.495899,0.555301 0.632911,0.886076c0.048441,0.116946 0.126582,0.379746 0.50633,0.759494c0.379746,0.379746 0.893701,1.006368 1.518987,1.772151c0.512632,0.627817 0.837194,0.923673 1.13924,1.265823c0.187321,0.212193 0.379747,0.506329 0.50633,0.632912c0.126581,0.126582 0.253164,0.379746 0.379745,0.506329c0.253164,0.253164 0.379747,0.632912 0.632912,1.012659l0.126583,0.253164l0.253164,0.126581" id="svg_7" fill-opacity="null" stroke-opacity="null" stroke-width="1.5" stroke="#005fbf" fill="none"/>
  <polyline stroke-linecap="round" id="svg_8" points="32.56961959099686,14.784811968427185 32.696201865403,14.658229694021045 " fill-opacity="null" stroke-opacity="null" stroke-width="1.5" stroke="#005fbf" fill="none"/>
  <polyline stroke-linecap="round" id="svg_9" points="35.10126507911955,8.202533699308184 35.10126507911955,8.075951424902051 " fill-opacity="null" stroke-opacity="null" stroke-width="1.5" stroke="#005fbf" fill="none"/>
 </g>
</svg>